<svg width="512" height="512" viewBox="0 0 512 512" xmlns="http://www.w3.org/2000/svg">
  <path
    fill="#C8960C"
    d="M244 108 L268 108 L268 444 L244 444 Z M244 136 C200 106 126 114 96 158 C138 132 196 144 244 170 Z M244 170 C196 144 138 132 96 158 C114 186 158 198 244 202 Z M268 136 C312 106 386 114 416 158 C374 132 316 144 268 170 Z M268 170 C316 144 374 132 416 158 C398 186 354 198 268 202 Z M256 64 C238.3 64 224 78.3 224 96 C224 113.7 238.3 128 256 128 C273.7 128 288 113.7 288 96 C288 78.3 273.7 64 256 64 Z M256 210 C240 222 250 244 242 262 C234 280 214 288 220 308 C226 328 248 334 256 352 C264 334 286 328 292 308 C298 288 278 280 270 262 C262 244 272 222 256 210 Z M244 356 L244 444 L268 444 L268 356 C262 362 256 364 256 364 C256 364 250 362 244 356 Z"
  />
</svg>
